P3
16 1
255
255 255 255
128 128 128
128   0   0
128 128   0
  0 128   0
  0 128 128
  0   0 128
128   0 128
255   0 255
192 192 192
255   0   0
255 255   0
  0 255   0
  0 255 255
  0   0 255
  0   0   0
