P3
2 1
255
  0   0   0
255 255 255
