/* XPM */
static char *icon_xpm[] = {
/* width height ncolors chars_per_pixel */
"48 48 873 2",
/* colors */
"   c #DCCFA3",
" . c #3C3431",
" X c #524540",
" o c #42332D",
" O c #8E7771",
" + c #766860",
" @ c #4A4442",
" # c #BBB5D2",
" $ c #50433E",
" % c #4F433D",
" & c #494241",
" * c #725045",
" = c #484240",
" - c #604030",
" ; c #63544A",
" : c #4E413C",
" > c #392E2E",
" , c #47423F",
" < c #B09F85",
" 1 c #4A4138",
" 2 c #684D45",
" 3 c #6F6059",
" 4 c #493D37",
" 5 c #5F4E46",
" 6 c #584F49",
" 7 c #423C3A",
" 8 c #322ABC",
" 9 c #6D5E57",
" 0 c #5D4C44",
" q c #564D47",
" w c #3D3DFF",
" e c #564B47",
" r c #5858FF",
" t c #705D50",
" y c #705B50",
" u c #FAFAFF",
" i c #2E2623",
" p c #1714DD",
" a c #524943",
" s c #534744",
" d c #58463F",
" f c #DBD1A5",
" g c #6D554D",
" h c #4F4540",
" j c #65564F",
" k c #3F332D",
" l c #64564E",
" z c #4C413D",
" x c #685148",
" c c #4A413B",
" v c #3A2F28",
" b c #4A3F3B",
" n c #2929FF",
" m c #ABABD9",
" M c #7A7AFF",
" N c #473D38",
" B c #453B36",
" V c #4034A5",
" C c #816D67",
" Z c #594A43",
" A c #0303FE",
" S c #514945",
" D c #1817D7",
" F c #5E453E",
" G c #403731",
" H c #504744",
" J c #3F3530",
" K c #7B6761",
" L c #6A554D",
" P c #3D332E",
" I c #D7CDA4",
" U c #3C332D",
" Y c #6F5248",
" T c #3030FF",
" R c #6666FF",
" E c #8181FF",
" W c #86776F",
" Q c #76655C",
" ! c #5F544C",
" ~ c #EDEDFF",
" ^ c #665149",
" / c #B6A9A8",
" ( c #5F524C",
" ) c #4D4037",
" _ c #6A68EF",
" ` c #312896",
" ' c #735F59",
" ] c #5B5048",
" [ c #92837E",
" { c #5B4E48",
" } c #5A4E47",
" | c #443B38",
".  c #705D56",
".. c #5B4A48",
".X c #433B37",
".o c #AA9185",
".O c #423936",
".+ c #CEBF9B",
".@ c #413935",
".# c #403734",
".$ c #0101FF",
".% c #1C1CFF",
".& c #3737FF",
".* c #1A16D2",
".= c #3E3532",
".- c #8888FF",
".; c #37309F",
".: c #3D3531",
".> c #534640",
"., c #3C3530",
".< c #F4F4FF",
".1 c #534440",
".2 c #4C4543",
".3 c #51443E",
".4 c #67554D",
".5 c #605650",
".6 c #76675F",
".7 c #735145",
".8 c #D8CA9E",
".9 c #5D524D",
".0 c #4D403A",
".q c #3B3585",
".w c #635149",
".e c #F2F1F3",
".r c #72635B",
".t c #855E50",
".y c #624F48",
".u c #786057",
".i c #706359",
".p c #352D29",
".a c #4A3E37",
".s c #674C43",
".d c #443D3B",
".f c #5F4F45",
".g c #604D46",
".h c #6E5F57",
".j c #45373C",
".k c #4A3B97",
".l c #827264",
".z c #322926",
".x c #5E4B44",
".c c #745C53",
".v c #413B38",
".b c #6C5F55",
".n c #564C46",
".m c #6C5D55",
".M c #5C4B42",
".N c #79594E",
".B c #FBFBFF",
".V c #1412E3",
".C c #1B18D6",
".Z c #5A4940",
".A c #806C62",
".S c #7F544A",
".D c #2E2522",
".F c #3D3734",
".G c #2D2521",
".H c #534843",
".J c #907A75",
".K c #685951",
".L c #796965",
".P c #6D5A4C",
".I c #2C2320",
".U c #514641",
".Y c #56473C",
".T c #675750",
".R c #4D407C",
".E c #2A211E",
".W c #5F5652",
".Q c #63554C",
".! c #4D423D",
".~ c #4C423C",
".^ c #86766B",
"./ c #61514A",
".( c #0F0FFF",
".) c #87726C",
"._ c #494039",
".` c #6060FF",
".' c #7B7BFF",
".] c #59504C",
".[ c #86706B",
".{ c #CCCCFF",
".} c #6E615A",
".| c #493C39",
"X  c #4343FD",
"X. c #654C44",
"XX c #5C4B45",
"Xo c #453A35",
"XO c #453B95",
"X+ c #544A47",
"X@ c #5A4943",
"X# c #534A46",
"X$ c #433833",
"X% c #0B0AF1",
"X& c #685B54",
"X* c #6A604C",
"X= c #675953",
"X- c #CCBE95",
"X; c #927D70",
"X: c #6D584F",
"X> c #665952",
"X, c #3F362F",
"X< c #A4A19C",
"X1 c #3E342E",
"X2 c #53453C",
"X3 c #705348",
"X4 c #4D4440",
"X5 c #4A3F47",
"X6 c #8282FF",
"X7 c #3B322B",
"X8 c #52413B",
"X9 c #3B302B",
"X0 c #EEEEFF",
"Xq c #76625B",
"Xw c #8E8983",
"Xe c #665048",
"Xr c #6C4F44",
"Xt c #5E534A",
"Xy c #49403C",
"Xu c #655047",
"Xi c #433C75",
"Xp c #382E28",
"Xa c #654E47",
"Xs c #47403A",
"Xd c #F3F0F0",
"Xf c #D3C69F",
"Xg c #84726C",
"Xh c #473E3A",
"Xj c #473C3A",
"Xk c #4D4CEC",
"Xl c #6C5F5B",
"Xz c #5A4D46",
"Xx c #91807C",
"Xc c #3C30AD",
"Xv c #443A37",
"Xb c #FEFEFE",
"Xn c #423A35",
"Xm c #957D76",
"XM c #705855",
"XN c #0E0DED",
"XB c #918172",
"XV c #413834",
"XC c #584479",
"XZ c #73594E",
"XA c #0202FF",
"XS c #2A27B9",
"XD c #1D1DFF",
"XF c #504846",
"XG c gray98",
"XH c #3F3632",
"XJ c #554741",
"XK c #8989FF",
"XL c #4E4844",
"XP c #3E3631",
"XI c #4E4644",
"XU c #53453F",
"XY c #4C4442",
"XT c #51453D",
"XR c #DBCDA0",
"XE c #3B322E",
"XW c #3A322D",
"XQ c #8D756E",
"X! c #39302C",
"X~ c #887969",
"X^ c #38302B",
"X/ c #74645C",
"X( c #4E413A",
"X) c #37302A",
"X_ c #5D534C",
"X` c #48403E",
"X' c #47403D",
"X] c #372E2A",
"X[ c #5D514C",
"X{ c #635048",
"X} c #453E3B",
"X| c #674D42",
"o  c #3A2B23",
"o. c #493D35",
"oX c #0909FF",
"oo c #332A26",
"oO c #594D48",
"o+ c #705C58",
"o@ c #423C38",
"o# c #322A25",
"o$ c #5A5AFF",
"o% c #574D46",
"o& c #584B47",
"o* c #0F0DF1",
"o= c #654740",
"o- c #58467C",
"o; c #E1E1FF",
"o: c #FCFCFF",
"o> c #554B44",
"o, c #403836",
"o< c #302623",
"o1 c #6A5C52",
"o2 c #5B4840",
"o3 c #2E2621",
"o4 c #6A5A52",
"o5 c #A68E83",
"o6 c #7F5349",
"o7 c #9F8F86",
"o8 c #2E2421",
"o9 c #363040",
"o0 c #685A50",
"oq c #3C3632",
"ow c #524741",
"oe c #DCCFA4",
"or c #524541",
"ot c #DBCFA3",
"oy c #2B221E",
"ou c #7C695D",
"oi c #40332C",
"op c #7F7B77",
"oa c #56423B",
"os c #443DB1",
"od c #8B776F",
"of c #D8CBA0",
"og c #62544A",
"oh c #63524B",
"oj c #1010FF",
"ok c #46403F",
"ol c #D6C99E",
"oz c #362E2C",
"ox c #4646FF",
"oc c #70645B",
"ov c #1E1AE5",
"ob c #46426A",
"on c #6F625A",
"om c #70605B",
"oM c #5F4E47",
"oN c #6D6058",
"oB c #483B37",
"oV c #473B36",
"oC c #6D5E58",
"oZ c #463B35",
"oA c #554D47",
"oS c #2F2825",
"oD c #0908F8",
"oF c #544B46",
"oG c #443933",
"oH c #816B65",
"oJ c #81745B",
"oK c #74564B",
"oL c #40352F",
"oP c #3A3433",
"oI c #8B7972",
"oU c #3F368E",
"oY c #4E4540",
"oT c #4F4341",
"oR c #79675D",
"oE c #8383FF",
"oW c #4D433F",
"oQ c #4E4140",
"o! c #D4D4FF",
"o~ c #3C312B",
"o^ c #EFEFFF",
"o/ c #4C413E",
"o( c #88756F",
"o) c #4B413D",
"o_ c #675148",
"o` c #563F34",
"o' c #C4B78C",
"o] c #5E5249",
"o[ c #664D47",
"o{ c #644D45",
"o} c #5D4E48",
"o| c #5D4C48",
"O  c #251FD1",
"O. c #453B37",
"OX c #443B36",
"Oo c #DFDBD8",
"OO c #594C44",
"O+ c #FEFDFD",
"O@ c #584C43",
"O# c #7F6B66",
"O$ c #0706F9",
"O% c #877E7B",
"O& c #3939FF",
"O* c #7D6B64",
"O= c #795749",
"O- c #4F4744",
"O; c #F6F6FF",
"O: c #7A6B61",
"O> c #4E4743",
"O, c #46414F",
"O< c #54463F",
"O1 c #E7E5E3",
"O2 c #3C332E",
"O3 c #61564F",
"O4 c #79543F",
"O5 c #3A312C",
"O6 c #60544E",
"O7 c #39312B",
"O8 c #F0F0F9",
"O9 c #392F2B",
"O0 c #655149",
"Oq c #644F48",
"Ow c #865E4F",
"Oe c #634F47",
"Or c #716158",
"Ot c #453D3A",
"Oy c #C0B38B",
"Ou c #0A0AFF",
"Oi c #342B26",
"Op c #5B5BFF",
"Oa c #4B3E61",
"Os c #433B38",
"Od c #9191FF",
"Of c #ACACFF",
"Og c #423B37",
"Oh c #C7C7FF",
"Oj c #322924",
"Ok c #E2E2FF",
"Ol c #332D50",
"Oz c #FDFDFF",
"Ox c #423937",
"Oc c #584A46",
"Ov c #0F0CF0",
"Ob c #110FE8",
"On c #403735",
"Om c #1F1BCE",
"OM c #0504FA",
"ON c #3F3734",
"OB c #544842",
"OV c #0F0DE6",
"OC c #DCD0A3",
"OZ c #524640",
"OA c #A58981",
"OS c #6E544B",
"OD c #51443F",
"OF c #3A332F",
"OG c #4B4343",
"OH c #4B4143",
"OJ c #D9CCA0",
"OK c #4F423D",
"OL c #484340",
"OP c #5E544F",
"OI c #C2BFBB",
"OU c #4E403C",
"OY c #1111FF",
"OT c #47413F",
"OR c #72655C",
"OE c #2C2CFF",
"OW c #63514A",
"OQ c #362F2B",
"O! c #4C403A",
"O~ c #36328B",
"O^ c #6868F1",
"O/ c #E9E9FF",
"O( c #4A3E38",
"O) c #877960",
"O_ c #59504A",
"O` c #4B4064",
"O' c #5E4F45",
"O] c #483C36",
"O[ c #998C6B",
"O{ c #473C35",
"O} c #574C48",
"O| c #6D5D57",
"+  c #302925",
"+. c #463A34",
"+X c #ABA5A1",
"+o c #6B5D55",
"+O c #4B4AE5",
"++ c #534A44",
"+@ c #433831",
"+# c #2E2523",
"+$ c #0707F5",
"+% c #60463D",
"+& c #534844",
"+* c #2D2522",
"+= c #58473F",
"+- c #B6A48E",
"+; c #514842",
"+: c #46388A",
"+> c #504641",
"+, c #373039",
"+< c #40342E",
"+1 c #6B564B",
"+2 c #B5AFAE",
"+3 c #6969FF",
"+4 c #3F322D",
"+5 c #463E4B",
"+6 c #D5D5FF",
"+7 c #F0F0FF",
"+8 c #281F1D",
"+9 c #4C423D",
"+0 c #62534C",
"+q c #77645A",
"+w c #4B403C",
"+e c #71635E",
"+r c #61514B",
"+t c #5F5149",
"+y c #493E3A",
"+u c #5F4F49",
"+i c #473D6D",
"+p c #382C26",
"+a c #85706B",
"+s c #4E4360",
"+d c #736056",
"+f c #463C37",
"+g c #1D18DC",
"+h c #D87C49",
"+j c #99958F",
"+k c #3E33A3",
"+l c #524A46",
"+z c #423833",
"+x c #7E6C64",
"+c c #1C1BD1",
"+v c #413832",
"+b c #7B564A",
"+n c #0202FD",
"+m c #F7F7FF",
"+M c #3F3630",
"+N c #806B5C",
"+B c #4F4643",
"+V c #3D342E",
"+C c #635750",
"+Z c #4E4442",
"+A c #4D4441",
"+S c #654F52",
"+D c #B8ACAA",
"+F c #1414FE",
"+G c #3A322B",
"+H c #F6F4F4",
"+J c #4A423E",
"+K c #3A302B",
"+L c #49423D",
"+P c #5F534C",
"+I c #4A403E",
"+U c #3E3750",
"+Y c #40397D",
"+T c #43364B",
"+R c #59475A",
"+E c #382E29",
"+W c #645047",
"+Q c #C1AF95",
"+! c #5D514A",
"+~ c #473E3B",
"+^ c #0B0BFF",
"+/ c #6B615B",
"+( c #2626FF",
"+) c #5C4D49",
"+_ c #4141FF",
"+` c #453C39",
"+' c #7777FF",
"+] c #433C37",
"+[ c #594D46",
"+{ c #443A38",
"+} c #E3E3FF",
"+| c #FEFEFF",
"@  c #66493F",
"@. c #433A37",
"@X c #584B45",
"@o c #5E4A41",
"@O c #312822",
"@+ c #413835",
"@@ c #BCAC86",
"@# c #362EA8",
"@$ c #3F3633",
"@% c #554742",
"@& c #4D4644",
"@* c #635753",
"@= c #4C4643",
"@- c #40345F",
"@; c #3C3430",
"@: c #765248",
"@> c #42332C",
"@, c #3B342F",
"@< c #4C4443",
"@1 c #765048",
"@2 c #4B4442",
"@3 c #DBCDA1",
"@4 c #51433E",
"@5 c #3C365B",
"@6 c #786D57",
"@7 c #3A322E",
"@8 c #66544C",
"@9 c #493B4A",
"@0 c #5E554E",
"@q c #D9CB9F",
"@w c #2D2DFF",
"@e c #74645D",
"@r c #6363FF",
"@t c #372E2B",
"@y c #D2CECD",
"@u c #B4B4FF",
"@i c #7F6054",
"@p c #362E2A",
"@a c #5C514C",
"@s c #342D5D",
"@d c #463E3D",
"@f c #4B3F38",
"@g c #443E3B",
"@h c #604E46",
"@j c #6F6058",
"@k c #5F4E45",
"@l c #6E6057",
"@z c #322A26",
"@x c #584D48",
"@c c #483B35",
"@v c #5E4C44",
"@b c #574D47",
"@n c #1310EC",
"@m c #564D46",
"@M c #312825",
"@N c #5C4A42",
"@B c #2F2823",
"@V c #554B45",
"@C c #6969DD",
"@Z c #3F3836",
"@A c #907F75",
"@S c #695C52",
"@D c #2E2622",
"@F c #695A52",
"@G c #CABC9A",
"@H c #59483F",
"@J c #7D5348",
"@K c #B7A38E",
"@L c #524742",
"@P c #685851",
"@I c #514741",
"@U c #322CA7",
"@Y c #DCCFA5",
"@T c #685651",
"@R c #DBCFA4",
"@E c #3434FF",
"@W c #66584F",
"@Q c #DACFA3",
"@! c #735448",
"@~ c #2A221E",
"@^ c #504540",
"@/ c #6C554B",
"@( c #A0A0FF",
"@) c #4F453F",
"@_ c #65564E",
"@` c #4D433D",
"@' c #B1AEA9",
"@] c #61524A",
"@[ c #5F5448",
"@{ c #B0A27D",
"@} c #87716C",
"@| c #2923D3",
"#  c #493F39",
"#. c #AFA27C",
"#X c #483D38",
"#o c #5E4E47",
"#O c #5D4E46",
"#+ c #473B37",
"#@ c #6B5E57",
"## c #554B48",
"#$ c #0505FF",
"#% c #544B47",
"#& c #796E68",
"#* c #7171FF",
"#= c #0706F7",
"#- c #685A54",
"#; c ghost white",
"#: c #675A53",
"#> c #8D7D75",
"#, c #2E29B0",
"#< c #574640",
"#1 c #A8A8F6",
"#2 c #654F5B",
"#3 c #7C7057",
"#4 c #645650",
"#5 c #7A675F",
"#6 c #705248",
"#7 c #4D4340",
"#8 c #3D312D",
"#9 c #69534B",
"#0 c #68534A",
"#q c #716660",
"#w c #8C766A",
"#e c #60524C",
"#r c #665148",
"#t c #655147",
"#y c #493F3C",
"#u c #9B847C",
"#i c #AE9988",
"#p c #5D5049",
"#a c #0C0CFF",
"#s c #473D3A",
"#d c #5B5047",
"#f c #463D39",
"#g c #5D5DFF",
"#h c #614F43",
"#j c #785E53",
"#k c #1210F1",
"#l c #5B4C47",
"#z c white",
"#x c #5E5EF6",
"#c c #433B36",
"#v c #FDFDFD",
"#b c #413734",
"#n c #504946",
"#m c #403733",
"#M c #564842",
"#N c #7C6B64",
"#B c #0101FE",
"#V c #BAB1AE",
"#C c #5B453D",
"#Z c #3E3531",
"#A c #544640",
"#S c #665B4B",
"#D c #4D4543",
"#F c #53443F",
"#G c #3C332F",
"#H c #6E5449",
"#J c #6E5249",
"#K c #3A312D",
"#L c #433B4D",
"#P c #39312C",
"#I c #6C5047",
"#U c #38312B",
"#Y c #49413F",
"#T c #65514A",
"#R c #73655B",
"#E c #382F2B",
"#W c #372F2A",
"#Q c #4D4039",
"#! c #EBEBFF",
"#~ c #473F3D",
"#^ c #463F3C",
"#/ c #D6C89B",
"#( c #4236AC",
"#) c #72615A",
"#_ c #352D28",
"#` c #4B3E37",
"#' c #453D3B",
"#] c #5A4E49",
"#[ c #5F4F44",
"#{ c #6F5F57",
"#} c #433B39",
"#| c #6D5F55",
"$  c #322925",
"$. c #D1C296",
"$X c #574A46",
"$o c #A69383",
"$O c #80564A",
"$+ c #554A44",
"$@ c #2623C2",
"$# c #655A57",
"$$ c #0807F4",
"$% c #534842",
"$& c #1A1AFF",
"$* c #3C3532",
"$= c #DBCEA3",
"$- c #514440",
"$; c #D7D7FF",
"$: c #DACEA2",
"$> c #F2F2FF",
"$, c #494342",
"$< c #D9CCA1",
"$1 c #73655E",
"$2 c #74635F",
"$3 c #474140",
"$4 c #46413F",
"$5 c #362F2C",
"$6 c #4C3D70",
"$7 c #70635B",
"$8 c #352D2B",
"$9 c #6F635A",
"$0 c #493E38",
"$q c #594E4B",
"$w c #5F4D47",
"$e c #857069",
"$r c #5C5144",
"$t c #5C4D44",
"$y c #473A36",
"$u c #805A4D",
"$i c #B1A69E",
"$p c #0606FF",
"$a c #554C47",
"$s c #6B5D56",
"$d c #5757FF",
"$f c #382E7A",
"$g c #2E2724",
"$h c #443833",
"$j c #958868",
"$k c #695B54",
"$l c #6F5A50",
"$z c #211ECA",
"$x c #F9F9FF",
"$c c #433632",
"$v c #3B303E",
"$b c #0302FC",
"$n c #413830",
"$m c #524844",
"$M c #685953",
"$N c #675952",
"$B c #524644",
"$V c #74554B",
"$C c #2720BC",
"$Z c #504642",
"$A c #725549",
"$S c #7B685F",
"$D c #D9CEA4",
"$F c #63554E",
"$G c #69544A",
"$H c #D7CAA2",
"$J c #B19A8A",
"$K c #87726E",
"$L c #2F2B92",
"$P c #4343FF",
"$I c #5E5EFF",
"$U c #372C26",
"$Y c #D2CCC8",
"$T c #51465A",
"$R c #9494FF",
"$E c #CACAFF",
"$W c #725E56",
"$Q c #352A24",
"$! c #5B4D46",
"$~ c #2C24C4",
"$^ c #332822",
"$/ c #806C67",
"$( c #0807FA",
"$) c #524A47",
"$_ c #584943",
"$` c #413833",
"$' c #675B55",
"$] c #0605F8",
"$[ c #403632",
"${ c #564741",
"$} c #3E3830",
"$| c #3F3631",
"%  c #795449",
"%. c #DBD4D4",
"%X c #3F3431",
"%o c #3B3497",
"%O c #644E5C",
"%+ c #3D342F",
"%@ c #635751",
"%# c #52433D",
"%$ c #6E5348",
"%% c #1414FF",
"%& c #3A322C",
"%* c #4A4AFF",
"%= c #4A423F",
"%- c #75645C",
"%; c #B6B6FF",
"%: c #655049",
"%> c #48403D",
"%, c #645048",
"%< c #372E29",
"%1 c #635047",
"%2 c #796156",
"%3 c #D2C6A0",
"%4 c #362C28",
"%5 c #6A615B",
"%6 c #453C3A",
"%7 c #5A4D48",
"%8 c #332A25",
"%9 c #433A38",
"%0 c #BEB089",
"%q c #423A37",
"%w c #322824",
"%e c #82574B",
"%r c #CCBE9A",
"%t c #5C4640",
"%y c #332D46",
"%u c blue",
"%i c #544742",
"%p c #2E2420",
"%a c #1B1BFF",
"%s c #3636FF",
"%d c #DDD1A4",
"%f c #6C6CFF",
"%g c #3C3631",
"%h c #4D4645",
"%j c #6F554C",
/* pixels */
"#z#z#z#z#z#z#z#z#z#z#z#z#z#z#z#z#z#z#z#z#z#z#z#z#z#z#z#z#z#z#z#z#z#z#z#z#z#z#z#z#z#z#z#z#z#z#z#z",
"#z#z#z#z#z#z#z#z#z#z#z#z#z#z#z#z#z#z#z#z#z#z#z#z#z#z#z#z#z#z#z#z#z#z#z#z#z#z#z#z#z#z#z#z#z#z#z#z",
"#z#z#z#z#z#z#z#z#z#z#z#z#z#z#z#z#z#z#z#z#z#z#z#z#z#z#z#z#z#z#z#z#z#z#z#z#z#z#z#z#z#z#z#z#z#z#z#z",
"#z#z#z#z#z#z#z#z#z#z#z#z#z#z#z#z#z#z#z#z#z#z#z#z#z#z#z#z#z#z#z#z#z#z#z#z#z#z#z#z#z#z#z#z#z#z#z#z",
"#z#z#z#z#z#z#z#z#z#z#z#z#z#z#z#z#z#zo!Od#g@E.%oj.($& T$dXK.{Oz#z#z#z#z#z#z#z#z#z#z#z#z#z#z#z#z#z",
"#z#z#z#z#z#z#z#z#z#z#z#z#z#z#z#!oE+(%u%u%u%u%u%u%u%u%u%u%u%u.%+'o;#z#z#z#z#z#z#z#z#z#z#z#z#z#z#z",
"#z#z#z#z#z#z#z#z#z#z#z#z#z$>+'#a%u%u%u%u%u%u%u%u%u%u%u%u%u%u%u%u+^ RO/#z#z#z#z#z#z#z#z#z#z#z#z#z",
"#z#z#z#z#z#z#z#z#z#z#z#z%;%a%u%u%u%u%u%u%u%u%u%u%u%u%u%u%u%uo*.kXM#(+F@(#z#z#z#z#z#z#z#z#z#z#z#z",
"#z#z#z#z#z#z#z#z#z#z+| M.$%u%u%u%u%u%u%u%u%u%u%u%u%u%u%u$(Xc+So{X~+1o-Ov.`$x#z#z#z#z#z#z#z#z#z#z",
"#z#z#z#z#z#z#z#z#z$x r%u%u%u%u%u%u%u%u%u%u%u%u%u%u%u.$$~+R ;@S.M+q$o#h%OO +_+7#z#z#z#z#z#z#z#z#z",
"#z#z#z#z#z#z#z#z+|o$%u%u%u%u%u%u%u%u%u%u%u%u%u%u%u+g$6#[O*%-o7O:O'.f+N.PXa VX #;#z#z#z#z#z#z#z#z",
"#z#z#z#z#z#z#z#z M%u%u%u%u%u%u%u%u%u%u%u%u%u%u@n+: 0 Qo( }om C@AORog@Hou t@oXC _#z#z#z#z#z#z#z#z",
"#z#z#z#z#z#z#z%;.$%u%u%u%u%u%u%u%u%u%u%u%uoD+k..o4o(#RO)@@#3#4$e@loco0+=@k#t x#2 ##z#z#z#z#z#z#z",
"#z#z#z#z#z#z.<XD%u%u%u%u%u%u%u%u%u%u%u A 8@9O@@l.J.l%0.8$:#/$j#d+a@j.i.b 0Oe%: ^#9 /Xb#z#z#z#z#z",
"#z#z#z#z#z#z.'%u%u%u%u%u%u%u%u%u%u%u@|Oaoi$to]%@$7od+-@Q f  @q#.$r$/ Qon$9+t.g%,Xeo_XxXd#z#z#z#z",
"#z#z#z#z#z ~#a%u%u%u%u%u%u%u%u%uov.R@> )$%.K$l !@0.}Xg#i I%dOCXRo'X*$2O# W.^@W@vOq%,+WXq%.#z#z#z",
"#z#z#z#z#z.-%u%u%u%u%u%u%u%u#kXO$coL+dOw#`Xp@X.h yO_oN#No5%3OC  @3$.oJX=.[oI#>o1 0X{%1%,#0+DXb#z",
"#z#z#z#z#z n%u%u%u%u%u%uO$@#.jo~ a$n+> oXZ l BO3oM$M@m#@.6#u@G f  XRolO[Xt@}$SX;Or#O@hOeX{Xu [+H",
"#z#z#z#zo!%u%u%u%u%u#B$C+T v+z@LX&#r 4.~ + g#M k+[@F%2@V#:.rXm+Qotot$=$<@{@[$K#5#woR@].x.yOe@N#V",
"#z#z#z#z$R%u%u%u%u.*@-$U+v@_$V%<O6@eoK N#ZOj#e$F+M@aX($s@b+C 3 O@K$D@YoeOJOy#S.LoH.A#{.Q 5O<.YOo",
"#z#z#z#z$I%u%uOV$f+p JOBoYO.O]oOX!.n z hOZ.!$' LOW+@OO 3#j./X_ 9.)$J$H@Y@ROJX-@6+e#N@P$_.0.Z$i#z",
"#z#z#z#z%s$$ ` >+E+V#&Xr h$[$m@^$A U%w+!OSo2$ %pXz+0O{++oB.m+P 6O| C.oXf@Q$:of <X/#o :#Q#|$Y#z#z",
"#z#z#zO+os$vo O4 H.:oyO5$aX##P.nX@O=@LOXX>X|$!@).5.u.N.aXJ (.cX:oA+o KOA.+%rXB.T#A$0X2oU.e#z#z#z",
"#z#z@y$#@O.F -+ho`XFO-+J@`@/X..z.Io)###coo+;$G%$ooOi %@8${XP$-#p$NoF$k 'XQ#)XXO!@f$TOm%u+7#z#z#z",
"XGO%$^#Uo%+%%#$Q#ZO>$wXn+f#sX8 SX4.XoC@! {#G.9@ #T$+.H+x$uO<#`#-$W@io> j+u@4oVXT%o#=%u%u+7#z#z#z",
"+2X1Xs#  ] P@<@=Os$|o}$O.#.G#f Z#I@p#f#8 q+9$ #X$X%jX9%XoL+roh%4Xloa@T.>O(o.+s.C%u%u%u%u u#z#z#z",
"+X+MOX+/OF@gX}#< d#_OQ+<+lXL%8#q.s Y@t@+oW#6O0%+.]#C.wow.~$1.tXu+4@%OKXo $.;OM%u%u%u%uOY#z#z#z#z",
"O1 1$|OgOLoq._@bo=XU$8 7Xh@:O.@Bo8@L#%XV$Z@*% .U@MO9%7#H@cXVX9#o%i#+oZO` p%u%u%u%u%u%uO&#z#z#z#z",
"#zOIX,XHo@ =oSo3o##DXI+ %5 z.7Ot+~@..4X3#E+##K#]@x b.Wo++bOK.3+wX$oQ@U$b%u%u%u%u%u%u%u%f#z#z#z#z",
"#z#z@'X7#bX} =oP@Z#m *#F+*@~%> 5+w#Z$q F#l#7XyX4OS#Joo.DOKorXo+.+i.V%u%u%u%u%u%u%u%u%uOf#z#z#z#z",
"#z#z#zX<+G.@#^$,+ $`#m%t@2X' .+)@J.|.E.p eo&$[Xvo)@4O} s+y GOH#,+n%u%u%u%u%u%u%u%u%uOu$>#z#z#z#z",
"#z#z#z#z+j%&Ox#^ ,o3+8.d H X@7 S$ho[$) |+A. %eOno<+yoT.OoGXiOb%u%u%u%u%u%u%u%u%u%u%uOp#z#z#z#z#z",
"#z#z#z#z#zXwO7@.%> @.d cX[o6.1+*oz+BOcOUX]Os$yX+$BXj#ZX5XS.$%u%u%u%u%u%u%u%u%u%u%u%u$E#z#z#z#z#z",
"#z#z#z#z#z#vopO7%9 =$3 i@I#8+&XFo,+]O}.S#y@M+`o/@$+z+YXN%u%u%u%u%u%u%u%u%u%u%u%u%u%*#z#z#z#z#z#z",
"#z#z#z#z#z#zO8obO7 | &OT.G$5%= 2OD@DONXE#n+Z+{O2+5$@%u%u%u%u%u%u%u%u%u%u%u%u%u%u$p$;#z#z#z#z#z#z",
"#z#z#z#z#z#z#z#1@sO5%6@2@&%g+LOP@1$-+ #}+I.=XH.qX%%u%u%u%u%u%u%u%u%u%u%u%u%u%u%uX6#z#z#z#z#z#z#z",
"#z#z#z#z#z#z#z#zO^OlXW#'.2$4@z$*+Ko|XY%q#K#L$z%u%u%u%u%u%u%u%u%u%u%u%u%u%u%u%u$Po:#z#z#z#z#z#z#z",
"#z#z#z#z#z#z#z#z$xXk%y@;@d%hok$g.v#~.:%+O~+$%u%u%u%u%u%u%u%u%u%u%u%u%u%u%u%u@wo^#z#z#z#z#z#z#z#z",
"#z#z#z#z#z#z#z#z#z+7+Oo9.,X`OG#Y.@X^+U+c%u%u%u%u%u%u%u%u%u%u%u%u%u%u%u%u%uOE+}#z#z#z#z#z#z#z#z#z",
"#z#z#z#z#z#z#z#z#z#z+m@C+,#WX]X)@,$L$]%u%u%u%u%u%u%u%u%u%u%u%u%u%u%u%u%u$PX0#z#z#z#z#z#z#z#z#z#z",
"#z#z#z#z#z#z#z#z#z#z#z#z mO,$}@5 D%u%u%u%u%u%u%u%u%u%u%u%u%u%u%u%u%u#$ Eo:#z#z#z#z#z#z#z#z#z#z#z",
"#z#z#z#z#z#z#z#z#z#z#z#z#zOk#xXA%u%u%u%u%u%u%u%u%u%u%u%u%u%u%u%u%uox+6#z#z#z#z#z#z#z#z#z#z#z#z#z",
"#z#z#z#z#z#z#z#z#z#z#z#z#z#z#z+6@r.(%u%u%u%u%u%u%u%u%u%u%u%uoX$dOh#z#z#z#z#z#z#z#z#z#z#z#z#z#z#z",
"#z#z#z#z#z#z#z#z#z#z#z#z#z#z#z#z#zO;@u#* w%%%u%u%u%uoj.&+3Of+7#z#z#z#z#z#z#z#z#z#z#z#z#z#z#z#z#z",
"#z#z#z#z#z#z#z#z#z#z#z#z#z#z#z#z#z#z#z#z#z#z.B+7+7$x#z#z#z#z#z#z#z#z#z#z#z#z#z#z#z#z#z#z#z#z#z#z",
"#z#z#z#z#z#z#z#z#z#z#z#z#z#z#z#z#z#z#z#z#z#z#z#z#z#z#z#z#z#z#z#z#z#z#z#z#z#z#z#z#z#z#z#z#z#z#z#z",
"#z#z#z#z#z#z#z#z#z#z#z#z#z#z#z#z#z#z#z#z#z#z#z#z#z#z#z#z#z#z#z#z#z#z#z#z#z#z#z#z#z#z#z#z#z#z#z#z",
"#z#z#z#z#z#z#z#z#z#z#z#z#z#z#z#z#z#z#z#z#z#z#z#z#z#z#z#z#z#z#z#z#z#z#z#z#z#z#z#z#z#z#z#z#z#z#z#z"
};
