/* XPM */
static char *icon_xpm[] = {
/* width height num_colors chars_per_pixel */
"    48    48      230            2",
/* colors */
".. c #1c1e1c",
".# c #6492c4",
".a c #7c423c",
".b c #545a5c",
".c c #4c322c",
".d c #4c463c",
".e c #34362c",
".f c #5c768c",
".g c #b4cae4",
".h c #7c6a54",
".i c #546a7c",
".j c #64463c",
".k c #643a2c",
".l c #7c766c",
".m c #a4929c",
".n c #342a24",
".o c #545244",
".p c #6c5a54",
".q c #4c3e34",
".r c #dce6f4",
".s c #64a2dc",
".t c #5c4a3c",
".u c #44362c",
".v c #7c7a74",
".w c #442e24",
".x c #5c8ab4",
".y c #6c6254",
".z c #7c6a6c",
".A c #242a24",
".B c #544e44",
".C c #6c6e6c",
".D c #8c8e9c",
".E c #b4b2b4",
".F c #34322c",
".G c #5c3e34",
".H c #649ac4",
".I c #4c4644",
".J c #8c7e7c",
".K c #743e34",
".L c #f4f6f4",
".M c #645a4c",
".N c #3c3e2c",
".O c #c4bebc",
".P c #747674",
".Q c #d4cecc",
".R c #64524c",
".S c #64423c",
".T c #8c765c",
".U c #8c7a74",
".V c #6c6664",
".W c #6c6e7c",
".X c #4c3a2c",
".Y c #543e3c",
".Z c #7ca6d4",
".0 c #443e2c",
".1 c #2c3224",
".2 c #cc624c",
".3 c #3c362c",
".4 c #6c3a2c",
".5 c #847674",
".6 c #2c2a24",
".7 c #649ad4",
".8 c #544644",
".9 c #6c524c",
"#. c #7c625c",
"## c #7c7264",
"#a c #847e8c",
"#b c #745a4c",
"#c c #3c4244",
"#d c #eceaec",
"#e c #6c8aac",
"#f c #74625c",
"#g c #64626c",
"#h c #6c7e8c",
"#i c #2c2624",
"#j c #cccacc",
"#k c #7c6a64",
"#l c #847664",
"#m c #4c4244",
"#n c #74a2cc",
"#o c #5c4a4c",
"#p c #443a3c",
"#q c #acc2dc",
"#r c #948684",
"#s c #fcfefc",
"#t c #645a5c",
"#u c #c4c6c4",
"#v c #5c5254",
"#w c #746e74",
"#x c #3c3a3c",
"#y c #2c2e34",
"#z c #242624",
"#A c #545e6c",
"#B c #54362c",
"#C c #544634",
"#D c #847e74",
"#E c #5c7284",
"#F c #342e24",
"#G c #5c524c",
"#H c #4c4234",
"#I c #443a2c",
"#J c #443234",
"#K c #648aac",
"#L c #846e6c",
"#M c #746a60",
"#N c #5c3a32",
"#O c #3c322d",
"#P c #5c4239",
"#Q c #4c4a49",
"#R c #948284",
"#S c #fcfafc",
"#T c #dcdadc",
"#U c #645651",
"#V c #8c766c",
"#W c #543a34",
"#X c #3c2e28",
"#Y c #84726c",
"#Z c #3c3a32",
"#0 c #6c3e3c",
"#1 c #847a76",
"#2 c #2c2e2a",
"#3 c #c4d6ec",
"#4 c #6482a4",
"#5 c #a49e9c",
"#6 c #8c4234",
"#7 c #ecf2fc",
"#8 c #bcbabc",
"#9 c #e4e2e4",
"a. c #e4eef4",
"a# c #748294",
"aa c #242224",
"ab c #6c9ecc",
"ac c #846664",
"ad c #444244",
"ae c #84463c",
"af c #84aad4",
"ag c #6c565c",
"ah c #745e5c",
"ai c #6c829c",
"aj c #747284",
"ak c #648ebc",
"al c #5c5a55",
"am c #746667",
"an c #ccc6c4",
"ao c #f4f2f4",
"ap c #3c3e3c",
"aq c #747684",
"ar c #6c423c",
"as c #443e3c",
"at c #7c727c",
"au c #746a6c",
"av c #ccd6ec",
"aw c #6496c5",
"ax c #4c362c",
"ay c #5c7a94",
"az c #643e34",
"aA c #6c5e5c",
"aB c #5c4e44",
"aC c #44322b",
"aD c #6c6654",
"aE c #7c6e74",
"aF c #f4fafc",
"aG c #8c7a64",
"aH c #6c7284",
"aI c #544237",
"aJ c #6c3e34",
"aK c #649ed6",
"aL c #544a46",
"aM c #848284",
"aN c #6c8eb4",
"aO c #746659",
"aP c #847a6b",
"aQ c #acc6e4",
"aR c #5c5655",
"aS c #544a3c",
"aT c #84827c",
"aU c #648eb4",
"aV c #444647",
"aW c #545654",
"aX c #eceeec",
"aY c #cccecc",
"aZ c #7c6e64",
"a0 c #5c4e4c",
"a1 c #645e5c",
"a2 c #5c564c",
"a3 c #dcdedc",
"a4 c #8c7a6c",
"a5 c #4c3234",
"a6 c #343634",
"a7 c #546a84",
"a8 c #643a34",
"a9 c #342a2c",
"b. c #4c3e3c",
"b# c #44423c",
"ba c #5c4a44",
"bb c #443634",
"bc c #7c7a7c",
"bd c #6c625c",
"be c #242a2c",
"bf c #544e4c",
"bg c #5c3634",
"bh c #343234",
"bi c #5c3e3c",
"bj c #649acc",
"bk c #4c464c",
"bl c #743e3c",
"bm c #f4f6fc",
"bn c #645a54",
"bo c #3c3e34",
"bp c #8c7a7c",
"bq c #4c3a34",
"br c #3c2a2c",
"bs c #443e34",
"bt c #7c7274",
"bu c #3c3634",
"bv c #6c3a34",
"bw c #84767c",
"bx c #2c2a2c",
"by c #7c6264",
"bz c #745a54",
"bA c #6c7e94",
"bB c #84766c",
"bC c #74a2d4",
"bD c #c4c6cc",
"bE c #24262c",
"bF c #54463c",
"bG c #342e2c",
"bH c #4c423c",
"bI c #443a34",
"bJ c #846e74",
/* pixels */
"#s#s#s#s#s#s#s#s#s#s#s#s#s#s#s#s#s#s#s#s#s#s#s#s#s#s#s#s#s#s#s#s#s#s#s#s#s#s#s#s#s#s#s#s#s#s#s#s",
"#s#s#s#s#s#s#s#s#s#s#s#s#s#s#s#s#s#s#s#s#s#s#s#s#s#s#s#s#s#s#s#s#s#s#s#s#s#s#s#s#s#s#s#s#s#s#s#s",
"#s#s#s#s#s#s#s#s#s#s#s#s#s#s#s#s#s#s#s#s#s#s#s#s#s#s#s#s#s#s#s#s#s#s#s#s#s#s#s#s#s#s#s#s#s#s#s#s",
"#s#s#s#s#s#s#s#s#s#s#s#s#s#s#s#s#s#s#s#s#s#s#s#s#s#s#s#s#s#s#Sao#s#s#s#s#s#s#s#s#s#s#s#s#s#s#s#s",
"#s#s#s#s#s#s#s#s#s#s#s#s#s#s#s#s#s#s#s#7av#3av#3#3av#3av#7#TaTad#8#S#s#s#s#s#s#s#s#s#s#s#s#s#s#s",
"#s#s#s#s#s#s#s#s#s#s#s#s#s#s#s#sao.g.Z#nbjbjbjbjbjbjbj.7#hbfb#aObFbcao#s#s#s#s#s#s#s#s#s#s#s#s#s",
"#s#s#s#s#s#s#s#s#s#s#s#s#s#s#S#q.7bj.7bjbjbjbjbjbjbjawaWbsbH#ZaR.U#CalaY#s#s#s#s#s#s#s#s#s#s#s#s",
"#s#s#s#s#s#s#s#s#s#s#s#sbmaQ.7bj.7bjbjbj.7bj.7bj.7ay.I#vaL#Ma0#xb#bn#U.I.Eao#s#s#s#s#s#s#s#s#s#s",
"#s#s#s#s#s#s#s#s#s#s#saF#naw.7bjbjbj.7bjbjbjbjaK#AaV.z.mag#vbtbaapbu#v.p.8.v#s#s#s#s#s#s#s#s#s#s",
"#s#s#s#s#s#s#s#s#s#s.r.7bj.7bjbj.7bjbjbjbj.7.x#Qbkbp#1ala1byaLaVbkbsa6bf#Zap.I#9#s#s#s#s#s#s#s#s",
"#s#s#s#s#s#s#s#s#s.rbjbjbjbjbjbjbjbj.7bj.7.faVa0bw.5#kaP#Malah#U.I.db##Z#Z#Zasb#.E#s#s#s#s#s#s#s",
"#s#s#s#s#s#s#s#saFbj.7bjbjbj.7bj.7bj.7aw.bbsb#aLa2.lbB#lbB##.Mambz.I.d#m.Na6.3#Zb#.V.L#s#s#s#s#s",
"#s#s#s#s#s#s#sbmbCbjbjbj.7bjbjbjbjbj.x#Q.Fb##HbsbHal###l.TbB#l.M#wac.8#HaLas.e#Z.3bsada3#s#s#s#s",
"#s#s#s#s#s#s#s#3bjbj.7bjbjbj.7bjaK#Ea6.3.B.Gbsbsas.qa0#MbB#l#laP.ya1bJbabd#.b..3.3bu#Zasan#s#s#s",
"#s#s#s#s#s#s#Sbjbj.7bjbj.7bjbjbj#Q.1.SbG.IbI#Zbsbobsbs#QaDbB#lbBaP##a2#R.9aA#b#H#Z.3#Z#IaVaT#s#s",
"#s#s#s#s#s#s#q.7bjbj.7bjbjbj.x#c.A#G.jarbx.1b#aIbibsboas.dbdbB#laPaG#Y.B#1bzaL.p.8.3bu.3#Z.0aL.L",
"#s#s#s#s#sao.7bjbjbjbj.7aKa7.F#2bx#Zba.u.u.F#mbs.3#ZbsbobIb#bn.laP#laGbB.Mam#L.t#Gbabs.e#IbI.8ao",
"#s#s#s#s#saQbjbj.7bj.7.HaV.6#zbsbG#O#2#mbF.Y#F.F.Fasarbobsbob#.o#Y#D#1a4#laOaR#rbaa0.8b##ZaLaY#s",
"#s#s#s#s#safaKbjbjbj#4bu.A#O#zaA.RaraC#2#U.F.Fbh.FaRa6#Zasas#Ias.BaZaGaG.TaG.h.B#YaB#Hasbf.O#s#s",
"#s#s#s#sbmbCbjbjbj.i.F#z#Gbi.u#iaB.p#X.6be.6as#I#O.6bxaL.X.YbsboapaSaOaPbB#VaG.h#Has#Za0.Q#s#s#s",
"#s#s#s#savbjbj.#aV.6bG#zaSbxbG.1bE.F#x.6#Obe.IbIbG.F.AaL.R#Zbsad#Zbs.I.y#1aG#YaBbs.ea0bD#s#s#s#s",
"#s#s#s#s#3bj.x#Z#z.Fbaaz#z.6#2bG#N#iaaa6.Ya8#z#z.FbIax#2#2bh#ZbqbH#ZbobH.p##aSbs#Z#U.H#3#s#s#s#s",
"#s#s#s#sav.i#y#z#2#O.I.6.F#2aa#mbq#N#2as#v.q.u#2a6#Ubi#O#ya6bn.Y#Zasbsapad.d#Z#Z#gawbj#3#s#s#s#s",
"#s#s#s#s.P#z.4aebGbx#zbxbx#O#i.6#2bG#2#z.6bx.Fbl#Fbx#2#2#WbGbG#Z.ebIb.asbobuas#faw.7aw#3#s#s#s#s",
"#s#s#9.Cbx.F#6.2#X#2bG#zbu.Y.4#zaa#i.Faxbhbx#GaC#0#2bE#k#Paz.1bx#t#Pazas#Zas.WaKbjbjbj#3#s#s#s#s",
"#s.O#2bG#Z#N#X#XbE#2aCa9#ObubEbxbG..#fbb.nbxbGa6bx#O#X#xb.bhbG#ObhagbhbGaL#Ebjbj.7bjbj#3#s#s#s#s",
"a3bGbx#Fah#ObG#2#i.Abb.a#Xaa#z#ibg.n#2bx#2bG#2.6#iad.K#F.6#2bn.4#X#2bGbfaq.7bjbjbjbjbj#3#s#s#s#s",
"#8.Abbam#ibx#2#2.n#2as#iaC#2aab#.8#0.n#zbEbG#0#Xa6bI.AbGbG#z.p.8bG.FaRai.7bjbj.7bj.7bjav#s#s#s#s",
"#9bG#z#I#2.6bxbbbga9aa#z.6.w.nbu#F#i.Fbx.6#tas#Bbe#ibebh#W.c#z.6bh#U#ebjbjbj.7bjbjbjbC#7#s#s#s#s",
"#s#5#2.6#2#2bG#va9ax.6#zbeas.k#X#z#z#z#J.FbGbx#2#2bx.6#v#Ubq.6apbzaUbjbj.7bjbjbj.7bjaf#s#s#s#s#s",
"#s#sbcbx#2.F.6aaaabx.F#i.8bH#ia5.6#z#maLbv.n.A#ibx.XaC#z#z.6boauaN.7bjbjbj.7bjbjbjbj.g#s#s#s#s#s",
"#s#saobn.6#2#2.6.A#zbGaJ.naa#z.Aax#Xbs.e.6bx#2.AbHb#aC#2#iaLbtaw.7bjbj.7bjbjbjbj.7bj#7#s#s#s#s#s",
"#s#s#saXa2bx.6.1#i.6#Za9#X#2aa#zbI#Nbr#z#z.6aCbb#2.6.A#2aR.zawbjbjbjbjbj.7bj.7bjbj#q#s#s#s#s#s#s",
"#s#s#s#s#9albx#y.1#i#z#z#2#2bxaB#o#i#B#2bx.1.Iaz#X#z#2aRbcawbj.7bjbj.7bjbjbjbj.7bjaF#s#s#s#s#s#s",
"#s#s#s#s#s#9.obxbx#2bxaabh#OaJ#2aa#z.AbG#Obub#.6bx.e.Ra#.7.7bjbj.7bjbjbj.7bjbjbj#3#s#s#s#s#s#s#s",
"#s#s#s#s#s#s#db#bxbx#2#zasa0aC.cbx#z#z.6#0.waa#z#y.paiawbjbj.7bjbjbj.7bjbj.7bjabbm#s#s#s#s#s#s#s",
"#s#s#s#s#s#s#s.Obubxbxbx.F#xbEbebGbG#2a0bx#ibxa6atbA.7.7.7bjbjbj.7bjbjbj.7bjbj#7#s#s#s#s#s#s#s#s",
"#s#s#s#s#s#s#s#s#8a6bxbx.6#zaa#i.n#N.A..aabe.IaE#KaKbjbjbjbj.7bjbjbj.7bjbjbj.r#s#s#s#s#s#s#s#s#s",
"#s#s#s#s#s#s#s#s#s#R.ebxbe#2.6.Fal#Xa8bx#z.Ibtakbjbj.7bjbjbjbjbj.7bjbjbj.7.r#s#s#s#s#s#s#s#s#s#s",
"#s#s#s#s#s#s#s#s#s#SaM.F#2bx#2.F#pbxbG.6#Q#a#ebjbjbjbj.7bj.7bj.7bjbjbjaKaF#s#s#s#s#s#s#s#s#s#s#s",
"#s#s#s#s#s#s#s#s#s#s.L.J#2bx#2#2aa..#z#Gaj.#.7bj.7bjbjbjbjbjbjbj.7bjaQ#7#s#s#s#s#s#s#s#s#s#s#s#s",
"#s#s#s#s#s#s#s#s#s#s#s#s.5.F.6#2.6#z#taHaw.7bjbjbjbj.7bj.7bj.7bj#qaF#s#s#s#s#s#s#s#s#s#s#s#s#s#s",
"#s#s#s#s#s#s#s#s#s#s#s#s#saM#2#ibeal.D#nbjbjbj.7bjbjbjbj.s.ZaQa.#s#s#s#s#s#s#s#s#s#s#s#s#s#s#s#s",
"#s#s#s#s#s#s#s#s#s#s#s#s#s#S#uaMaM#j#sa.#3#3#3#3#3#3#3#3aX#s#s#s#s#s#s#s#s#s#s#s#s#s#s#s#s#s#s#s",
"#s#s#s#s#s#s#s#s#s#s#s#s#s#s#s#S#S#s#s#s#s#s#s#s#s#s#s#s#s#s#s#s#s#s#s#s#s#s#s#s#s#s#s#s#s#s#s#s",
"#s#s#s#s#s#s#s#s#s#s#s#s#s#s#s#s#s#s#s#s#s#s#s#s#s#s#s#s#s#s#s#s#s#s#s#s#s#s#s#s#s#s#s#s#s#s#s#s",
"#s#s#s#s#s#s#s#s#s#s#s#s#s#s#s#s#s#s#s#s#s#s#s#s#s#s#s#s#s#s#s#s#s#s#s#s#s#s#s#s#s#s#s#s#s#s#s#s",
"#s#s#s#s#s#s#s#s#s#s#s#s#s#s#s#s#s#s#s#s#s#s#s#s#s#s#s#s#s#s#s#s#s#s#s#s#s#s#s#s#s#s#s#s#s#s#s#s"
};
