/* XPM */
static char *icon_xpm[] = {
/* width height num_colors chars_per_pixel */
"    26    48       98            2",
/* colors */
".. c #101820",
".# c #181018",
".a c #181818",
".b c #181820",
".c c #201818",
".d c #201820",
".e c #202028",
".f c #282020",
".g c #282028",
".h c #282828",
".i c #282830",
".j c #282838",
".k c #302828",
".l c #302830",
".m c #302838",
".n c #303030",
".o c #303038",
".p c #303040",
".q c #382830",
".r c #383028",
".s c #383030",
".t c #383038",
".u c #383040",
".v c #383838",
".w c #383840",
".x c #383848",
".y c #384040",
".z c #403030",
".A c #403038",
".B c #403838",
".C c #403840",
".D c #403848",
".E c #404040",
".F c #404048",
".G c #404050",
".H c #404848",
".I c #483028",
".J c #483830",
".K c #483838",
".L c #483840",
".M c #484040",
".N c #484050",
".O c #484848",
".P c #484850",
".Q c #484858",
".R c #485050",
".S c #485848",
".T c #486048",
".U c #503838",
".V c #504038",
".W c #504040",
".X c #504858",
".Y c #505050",
".Z c #505058",
".0 c #505060",
".1 c #505860",
".2 c #506050",
".3 c #506850",
".4 c #584040",
".5 c #584840",
".6 c #585058",
".7 c #585060",
".8 c #585858",
".9 c #585860",
"#. c #586060",
"## c #587060",
"#a c #604840",
"#b c #605058",
"#c c #606060",
"#d c #606068",
"#e c #606868",
"#f c #607060",
"#g c #686868",
"#h c #686870",
"#i c #687070",
"#j c #687078",
"#k c #688068",
"#l c #707070",
"#m c #707078",
"#n c #707878",
"#o c #708070",
"#p c #708870",
"#q c #709078",
"#r c #787878",
"#s c #787880",
"#t c #788080",
"#u c #788878",
"#v c #789078",
"#w c #789878",
"#x c #805040",
"#y c #806050",
"#z c #808088",
"#A c #888890",
"#B c #906858",
"#C c #909090",
"#D c #a0a0a0",
"#E c #a87860",
"#F c #e0a088",
/* pixels */
"#c.f.c.a.#.#.a.a.a.c.c.c.c.d.d.d.d.c.c.c.c.c.c.c.f#c",
".n.n.t.t.t.t.t.t.t.v.w.E.w.w.w.w.w.w.C.w.w.v.v.v.t.l",
".n.t.C.8.Y.Y.P.O.P.P.F.w.w.w.w.w.C.C.E.C.E.C.C.C.v.l",
".n.v.E#r#l#g#.#.#.#c.P.w.F.F.E.C.F.E.C.w.w.w.w.C.v.l",
".t.w.C.P.O.H.F.F.O.O.E.F.F.F.F.F.F.F.C.C.w.w.w.w.v.l",
".t.C.F.F.F.F.F.F.F.F.F.F.F.F.F.F.F.F.F.F.F.F.F.F.w.l",
".t.t.G.X.0.0.P.G.G.G.G.N.N.N.Z.9.9.Z.7.9.7.9.0.Z.w.l",
".o.t.Q#m#t#t.9.X.Q.Q.Q.Z.X.Z#m#s#z#j#m#m#m#m#d.Z.w.n",
".t.w#h#s#s#n#m#m#m#m#j#j#m#m#m#m#n#n#s#s#s#m#m#h.w.n",
".t.C#i#k#p#p#p#p#p#p#p#p#p#p#p#p#p#u#u#v#v#u#o#d.w.n",
".t.F#e#f#w#w#w#w#w#w#w#w#w#w#w#w#w#w#w#w#w#w#p#..w.n",
".s.C#d#f#q#v#q#v#q#q#v#q#v#v#q#v#v#v#v#v#v#q#k#..C.n",
".n.w#d#f#q#q#q#q#q#q#q#q#q#q#q#q#q#q#q#q#q#q#k#..w.n",
".n.w#.###q#q#q#q#q#q#q#q#q#q#q#q#q#q#q#q#q#q#k#..C.n",
".n.w.1.y.T.S.S.S.S.S.S.S.T.T.T.T.T.2.2.2.3.3.S.Z.w.n",
".n.w.9.P.R.Y.R.P.P.P.P.P.P.P.P.O.O.O.H.F.E.E.F.Z.w.l",
".n.w.N.Z.9.9.9.9.9.9.9.9#c#d#d#d#d#c.9.9.9.8.Z.G.w.l",
".n.w.Q.Q.P.P.Q.Q.Q.X.Z.Z.Z.Z.Z.Z.Z.Z.Z.Q.Q.Q.Q.Q.w.l",
".n.w.0.0.0.0.0.0.0.0.0.0.0.1.1.1.1.1.9.1.1.1.1.1.F.n",
".n.o.Q#b.Z.Z.Z#b.X.Q.Z.6.Q.Q.6.Z.X.X.6.Z.Z.6.8.Z.w.l",
".s.o.w.w.o.F.w.v.o.F.v.v.w.w.t.o.D.v.t.o.F.v.B.w.v.l",
".s.o.Z#m.Y.D#d#r.F.F#i#h.w.P#m#d.w.Z#m.Z.D#g#r.P.t.l",
".s.l.F.P.F.F.P.P.F.F.P.F.x.F.P.F.F.F.O.F.F.F.F.w.t.l",
".s.l.W#a.4.C.o.B.o.o.t.B.o.o.W.L.o.B.W.B.o.B.4.t.l.h",
".s.i.o.E.n.i.v.C.h.i.v.v.i.i.E.v.i.o.E.o.i.v.M.i.l.l",
".s.i.P#n.Z.o#c#m.E.o#d#e.o.w#m#c.o.Z#r.Z.l#c#r.C.l.l",
".q.i.o.o.t.t.v.o.o.o.w.v.o.o.C.v.o.o.w.o.o.t.v.l.l.n",
".q.g.e.b.k.J.k...b.t.K.B.B.s.U.U.o.h.U.k.i.z.J.s.l.n",
".q.g.o.F.Y.Y.Z.F.i.o.P.P.i.o.Y.E.i.t.P.o.i.E.8.l.l.n",
".q.g.F#h#m#l#l#e.w.u#d#d.o.w#g.8.o.P#d.O.o.8#i.w.l.n",
".q.g.o.C.v.o.o.B.B.v.o.o.t.t.o.o.B.B.t.m.i.t.t.i.l.l",
".q.g.l.K.l.o.i.z.z.r.i.e.k.k.e.i.z.I.k.i.d.r.k.e.i.l",
".q.g.w#i.E.i.o.Z#d.E.i.F#d.Z.l.o.Y#e.F.i.E.9.8.o.i.l",
".q.i.F#h.O.o.w.8.9.O.o.O#..8.o.w.Z.9.F.o.F.9.9.v.l.n",
".q.h.o.M.t.o.j.A.L.l.o.B.K.U.t.m.A.K.t.j.i.K.B.i.l.n",
".q.h.l.B.l.o.i.k.s.f.i.s.z.s.i.i.k.s.h.i.e.s.s.e.l.l",
".q.h.F#A.P.m.w#d#m.O.i.P#m#d.o.o#c#m.P.i.P#m#h.w.l.l",
".t.i.w.Z.F.o.w.P.Y.E.o.F.R.P.o.w.O.P.y.o.w.P.P.o.l.n",
".s.i.o.p.p.p.w.W.5.L.o.B.W.W.t.t.W.M.K.o.l.V.B.i.n.n",
".s.i.t#x.s.o.o.t.B.l.i.n.v.t.i.l.s.t.n.j.i.s.n.i.l.n",
".t.l#B#F#E.o.y#g#l.Z.o.Z#s#h.w.w#h#t.9.o.Z#m#h.E.l.n",
".t.i.D#y.O.p.w.F.F.w.p.w.O.F.p.w.F.F.w.p.w.F.E.o.n.n",
".t.i.w.5.C.u.o.V.V.K.o.C.5.W.p.p.W.5.C.o.B.V.V.A.l.l",
".t.i.o.t.n.o.o.t.w.l.i.o.v.t.i.i.v.C.n.i.l.v.v.l.l.l",
".t.l.P#n.9.p.F#h#r.Z.o.Z#h#d.w.w#i#n.9.o.Z#m#h.E.l.l",
".t.l.w#g.P.p.w.x.x.w.p.w.w.w.p.p.w.w.p.o.o.w.w.o.m.l",
".8.o.o.H.w.o.o.o.o.p.o.o.o.o.o.o.o.o.o.o.o.o.o.i.o.F",
"#D#c.w.t.v.v.v.v.w.w.w.w.v.v.w.v.v.w.w.w.w.v.t.v.9#C"
};
