/* XPM */
static char *icon_xpm[] = {
/* width height ncolors chars_per_pixel */
"48 48 4 1",
/* colors */
"  c #000000",
". c #FFFFFF",
"X c #0000FF",
"o c #C0C0C0",
/* pixels */
"oooooooooooooooooooXXXXXXXXXoooooooooooooooooooo",
"oooooooooooooooXXXXXXXXXXXXXXXXXoooooooooooooooo",
"oooooooooooooXXXXXXXXXXXXXXXXXXXXXoooooooooooooo",
"oooooooooooXXXXXXXXXXXXXXXXXXXXXXXXXoooooooooooo",
"ooooooooooXXXXXXXXXXXXXXXXXXXXXXXXXXXooooooooooo",
"oooooooooXXXXXXXXXXXXXXXXXXXXXXXXXXXXXoooooooooo",
"oooooooXXXXXXXXXXXXXXXXXXXXXXXXXXXXXXXXXoooooooo",
"ooooooXXXXXXXXXX.......XX..........XXXXXXooooooo",
"ooooooXXXXXXXXX.       ..          .XXXXXooooooo",
"oooooXXXXXXXXX.       .             .XXXXXoooooo",
"ooooXXXXXXXXX.       ..              .XXXXXooooo",
"oooXXXXXXXXX.       .                 .XXXXXoooo",
"oooXXXXXXXX.       .                   .XXXXoooo",
"ooXXXXXXXX.        .       ......       .XXXXooo",
"ooXXXXXXXX.        .      .XXXXX.       .XXXXooo",
"oXXXXXXXX.         .      .XXXXX.       .XXXXXoo",
"oXXXXXXX.          .      .XXXXX.       .XXXXXoo",
"oXXXXXX.      ..    ......XXXXXX.       .XXXXXoo",
"oXXXXXX.      ..      .XXXXXXXXX.       .XXXXXoo",
"XXXXXXX.      ..       .XXXXXXX..      .XXXXXXXo",
"XXXXXX.      .X.       .XXXX...       .XXXXXXXXo",
"XXXXX.      .XX.       .XXXX          .XXXXXXXXo",
"XXXXX.     .XXX.       .XX.           .XXXXXXXXo",
"XXXXX.     .XXX.       .X.           .XXXXXXXXXo",
"XXXXX.     .XXX.       ..           .XXXXXXXXXXo",
"XXXX.      .....       ..          .XXXXXXXXXXXo",
"XXXX.                    .      ...XXXXXXXXXXXXo",
"XXXX.                    .     .XXXXXXXXXXXXXXXo",
"oXXX.                    .   ..XXXXXXXXXXXXXXXoo",
"oXXX.                    .   .XXXXXXXXXXXXXXXXoo",
"oXXXX.                   .  .XXXXXXXXXXXXXXXXXoo",
"oXXXX...........       ..   ...........XXXXXXXoo",
"ooXXXXXXXXXXXXX.       .               .XXXXXooo",
"ooXXXXXXXXXXXXX.       .                .XXXXooo",
"oooXXXXXXXXXXXX.       .                .XXXoooo",
"oooXXXXXXXXXXXX.       .               .XXXXoooo",
"ooooXXXXXXXXXXX.      .X.             .XXXXooooo",
"oooooXXXXXXXXXXX......XXX.............XXXXoooooo",
"ooooooXXXXXXXXXXXXXXXXXXXXXXXXXXXXXXXXXXXooooooo",
"ooooooXXXXXXXXXXXXXXXXXXXXXXXXXXXXXXXXXXXooooooo",
"oooooooXXXXXXXXXXXXXXXXXXXXXXXXXXXXXXXXXoooooooo",
"oooooooooXXXXXXXXXXXXXXXXXXXXXXXXXXXXXoooooooooo",
"ooooooooooXXXXXXXXXXXXXXXXXXXXXXXXXXXooooooooooo",
"oooooooooooXXXXXXXXXXXXXXXXXXXXXXXXXoooooooooooo",
"oooooooooooooXXXXXXXXXXXXXXXXXXXXXoooooooooooooo",
"oooooooooooooooXXXXXXXXXXXXXXXXXoooooooooooooooo",
"oooooooooooooooooooXXXXXXXXXoooooooooooooooooooo",
"oooooooooooooooooooooooooooooooooooooooooooooooo"
};
