/* XPM */
static char *icon_48_xpm[] = {
/* width height ncolors chars_per_pixel */
"48 48 914 2",
/* colors */
"   c #4674B6",
" . c #6C503E",
" X c #48372F",
" o c #5A4538",
" O c #483A36",
" + c #5A473B",
" @ c #483B37",
" # c #483C3A",
" $ c #5A493D",
" % c #59697F",
" & c #36312E",
" * c #36322F",
" = c #363230",
" - c #363232",
" ; c #363233",
" : c #363234",
" > c #36332D",
" , c #363333",
" < c #363334",
" 1 c #363335",
" 2 c #7D8580",
" 3 c #36342F",
" 4 c #363434",
" 5 c #363435",
" 6 c #363436",
" 7 c #484139",
" 8 c #363533",
" 9 c #363536",
" 0 c #EB9552",
" q c #48443E",
" w c #6C6142",
" e c #7E6E48",
" r c #484848",
" t c #7E6F48",
" y c #7E704A",
" u c #484B45",
" i c #363F55",
" p c #355E99",
" a c #597BAB",
" s c #5A5D5A",
" d c #485360",
" f c #6D4F40",
" g c #7F5C48",
" h c #6D503D",
" j c #6C7068",
" k c #5B4438",
" l c #493A31",
" z c #252125",
" x c #5B473A",
" c c #372E2A",
" v c #252228",
" b c #5B483D",
" n c #5A6877",
" m c #373031",
" M c #37312E",
" N c #373134",
" B c #252529",
" V c #244471",
" C c #373230",
" Z c #5B4B42",
" A c #244572",
" S c #5A6B82",
" D c #373332",
" F c #373333",
" G c #373433",
" H c #373434",
" J c #373435",
" K c #373436",
" L c #373532",
" P c #373534",
" I c #6C7A81",
" U c #49423E",
" Y c #373634",
" T c #373639",
" R c #37363A",
" E c #494333",
" W c #5B5143",
" Q c #37383A",
" ! c #37393B",
" ~ c #373A3D",
" ^ c #373B44",
" / c #5B554A",
" ( c #373C3C",
" ) c #373C3D",
" _ c #7F7049",
" ` c #494A47",
" ' c #7F7149",
" ] c #7F714B",
" [ c #7F7156",
" { c #494C50",
" } c #494D49",
" | c #495058",
".  c #49505C",
".. c #495150",
".X c #4874B4",
".o c #6D7169",
".O c #6D7269",
".+ c #26211E",
".@ c #6D736A",
".# c #26221E",
".$ c #262220",
".% c #262222",
".& c #4A3B33",
".* c #4A3B34",
".= c #382F2B",
".- c #262322",
".; c #4A3C34",
".: c #262324",
".> c #4A3C39",
"., c #262424",
".< c #262425",
".1 c #38322D",
".2 c #254573",
".3 c #383330",
".4 c #383334",
".5 c #4A4036",
".6 c #383431",
".7 c #383432",
".8 c #383434",
".9 c #7F8682",
".0 c #38352F",
".q c #383534",
".w c #383535",
".e c #383536",
".r c #383630",
".t c #383634",
".y c #383635",
".u c #383737",
".i c #383739",
".p c #5C5139",
".a c #383836",
".s c #4A453D",
".d c #4A453E",
".f c #383938",
".g c #38393C",
".h c #5C5344",
".j c #5C543C",
".k c #6E614D",
".l c #4A4846",
".z c #6E6243",
".x c #383C43",
".c c #919B91",
".v c #383D3F",
".b c #5C584E",
".n c #80724A",
".m c #80724B",
".M c #4974B4",
".N c #6F503F",
".B c #5D4536",
".V c #6F5241",
".C c #272220",
".Z c #4B3B32",
".A c #272221",
".S c #6F5446",
".D c #392F2D",
".F c #272320",
".G c #272323",
".H c #6E756B",
".J c #39302B",
".K c #272422",
".L c #4B3D34",
".P c #272423",
".I c #272527",
".U c #27252C",
".Y c #4B4240",
".T c #39362F",
".R c #393632",
".E c #393634",
".W c #393636",
".Q c #4B4337",
".! c #393735",
".~ c #393736",
".^ c #393737",
"./ c #393833",
".( c #39383A",
".) c #393B3C",
"._ c #4B4840",
".` c #4B4944",
".' c #81704A",
".] c #4B4B45",
".[ c #4B4C54",
".{ c #81734B",
".} c #4B4D48",
".| c #81744D",
"X  c #81754F",
"X. c #5C7AA3",
"XX c #5D5E59",
"Xo c #4A71AC",
"XO c #4C3329",
"X+ c #5D605A",
"X@ c #4C372E",
"X# c #6F746C",
"X$ c #282321",
"X% c #282323",
"X& c #5E493C",
"X* c #5E493D",
"X= c #282422",
"X- c #282426",
"X; c #16181F",
"X: c #282528",
"X> c #3A322D",
"X, c #16191E",
"X< c #3A3230",
"X1 c #282626",
"X2 c #28262B",
"X3 c #3A3437",
"X4 c #3A3532",
"X5 c #28292F",
"X6 c #3A3633",
"X7 c #3A3636",
"X8 c #5E5037",
"X9 c #27497A",
"X0 c #3A3731",
"Xq c #3A3735",
"Xw c #3A3736",
"Xe c #3A3833",
"Xr c #3A383A",
"Xt c #3A3933",
"Xy c #4C463E",
"Xu c #3A3A3B",
"Xi c #3A3B3B",
"Xp c #5D7597",
"Xa c #4C4C46",
"Xs c #4C4C48",
"Xd c #82734B",
"Xf c #4C4D49",
"Xg c #706748",
"Xh c #4C4F49",
"Xj c #4C504D",
"Xk c #706B50",
"Xl c #827868",
"Xz c #3965A2",
"Xx c #5E615A",
"Xc c #71513D",
"Xv c #715240",
"Xb c #5F4639",
"Xn c #715340",
"Xm c #292320",
"XM c #3A4F74",
"XN c #29241F",
"XB c #70766E",
"XV c #3A5077",
"XC c #4D3E34",
"XZ c #3B322B",
"XA c #3B322D",
"XS c #3B3232",
"XD c #3A5179",
"XF c #292623",
"XG c #292624",
"XH c #292626",
"XJ c #292629",
"XK c #3B3331",
"XL c #292725",
"XP c #292726",
"XI c #292728",
"XU c #29272A",
"XY c #3B342D",
"XT c #292828",
"XR c #29282A",
"XE c #29282D",
"XW c #29292E",
"XQ c #3B3634",
"X! c #3B3736",
"X~ c #3B3737",
"X^ c #3B373A",
"X/ c #292B31",
"X( c #284A7A",
"X) c #3B383A",
"X_ c #4C648F",
"X` c #3B3939",
"X' c #3B393A",
"X] c #3B3A38",
"X[ c #3B3D44",
"X{ c #3B3E45",
"X} c #4D4B46",
"X| c #716645",
"o  c #5E789B",
"o. c #5F5A42",
"oX c #83744C",
"oo c #83754D",
"oO c #5E7AA5",
"o+ c #4D4F4A",
"o@ c #4D4F4B",
"o# c #3A65A3",
"o$ c #3A66A4",
"o% c #3A66A5",
"o& c #5F635C",
"o* c #5F6363",
"o= c #72523E",
"o- c #4E3A2F",
"o; c #725441",
"o: c #4E3B31",
"o> c #3B4F74",
"o, c #4E3D31",
"o< c #604A3E",
"o1 c #4E3E36",
"o2 c #2A2528",
"o3 c #3C322C",
"o4 c #3C322D",
"o5 c #604B3E",
"o6 c #2A2623",
"o7 c #2A2624",
"o8 c #2A2626",
"o9 c #2A2627",
"o0 c #2A2628",
"oq c #2A262A",
"ow c #604C41",
"oe c #2A2726",
"or c #2A2727",
"ot c #2A2729",
"oy c #2A272A",
"ou c #2A272E",
"oi c #3C342E",
"op c #2A2829",
"oa c #2A282A",
"os c #2A282B",
"od c #2A282D",
"of c #4E4239",
"og c #2A292E",
"oh c #3C3637",
"oj c #3C3732",
"ok c #3C3736",
"ol c #3C3833",
"oz c #3C3835",
"ox c #3C3837",
"oc c #3C3938",
"ov c #3C393A",
"ob c #4E463B",
"on c #3C3A37",
"om c #3C3B3E",
"oM c #5F7694",
"oN c #4E4B43",
"oB c #726550",
"oV c #3C4142",
"oC c #84754D",
"oZ c #4E4F4B",
"oA c #84764E",
"oS c #4D71A8",
"oD c #3B67A6",
"oF c #60625D",
"oG c #60635C",
"oH c #606463",
"oJ c #4D77B2",
"oK c #855F47",
"oL c #855F4C",
"oP c #606662",
"oI c #614737",
"oU c #735441",
"oY c #614839",
"oT c #61483C",
"oR c #735540",
"oE c #735545",
"oW c #3D302D",
"oQ c #735646",
"o! c #3C5177",
"o~ c #3C5178",
"o^ c #2B2624",
"o/ c #735846",
"o( c #2B2629",
"o) c #2B2723",
"o_ c #2B2725",
"o` c #2B2727",
"o' c #2B272B",
"o] c #3D3431",
"o[ c #2B2826",
"o{ c #2B2827",
"o} c #2B2828",
"o| c #2B2829",
"O  c #2B282B",
"O. c #2B282C",
"OX c #3D3530",
"Oo c #2B2927",
"OO c #2B292C",
"O+ c #2B292E",
"O@ c #2B292F",
"O# c #2B2A2C",
"O$ c #2B2A30",
"O% c #2B2B2D",
"O& c #2B2B2E",
"O* c #2B2B32",
"O= c #3D3834",
"O- c #3D3835",
"O; c #2B2C31",
"O: c #3D3934",
"O> c #3D3A3B",
"O, c #3D3B36",
"O< c #3D3B3C",
"O1 c #3D3C40",
"O2 c #3D3C42",
"O3 c #61563D",
"O4 c #3D3D41",
"O5 c #3D3E40",
"O6 c #736849",
"O7 c #4F504C",
"O8 c #85774E",
"O9 c #85784E",
"O0 c #4E77B2",
"Oq c #4F5963",
"Ow c #74533F",
"Oe c #19345A",
"Or c #4F5A68",
"Ot c #3E3129",
"Oy c #2C2726",
"Ou c #2C2823",
"Oi c #2C2824",
"Op c #2C2825",
"Oa c #2C2826",
"Os c #2C2827",
"Od c #2C2828",
"Of c #3E352F",
"Og c #2C2926",
"Oh c #2C2929",
"Oj c #2C2A2B",
"Ok c #2C2A2E",
"Ol c #2C2A2F",
"Oz c #2C2A30",
"Ox c #2C2B2B",
"Oc c #2C2B2E",
"Ov c #625149",
"Ob c #2C2C31",
"On c #3E3936",
"Om c #3E3937",
"OM c #3E3938",
"ON c #3E3A39",
"OB c #3E3B3B",
"OV c #3E3B3D",
"OC c #3E3B3E",
"OZ c #2C3039",
"OA c #2B4F81",
"OS c #504A40",
"OD c #504C48",
"OF c #3E444E",
"OG c #86784F",
"OH c #867850",
"OJ c #867950",
"OK c #867B52",
"OL c #505555",
"OP c #62645B",
"OI c #62645F",
"OU c #634838",
"OY c #755541",
"OT c #3F312D",
"OR c #634C3C",
"OE c #3F342E",
"OW c #514137",
"OQ c #2D2827",
"O! c #2D2926",
"O~ c #2D2927",
"O^ c #2D2928",
"O/ c #2D2929",
"O( c #2D292B",
"O) c #2D292C",
"O_ c #2D2A26",
"O` c #2D2A28",
"O' c #2D2A29",
"O] c #2D2A2A",
"O[ c #2D2A2D",
"O{ c #2D2A2F",
"O} c #2D2A30",
"O| c #2D2B28",
"+  c #2D2B29",
"+. c #2D2B2A",
"+X c #2D2B2B",
"+o c #2D2B2D",
"+O c #2D2B2E",
"++ c #2D2C2C",
"+@ c #3F3930",
"+# c #3F3934",
"+$ c #3F3935",
"+% c #2D2D2F",
"+& c #3F3B30",
"+* c #3F3B3C",
"+= c #3F3C3E",
"+- c #868E87",
"+; c #3F3E39",
"+: c #3F3E3C",
"+> c #3F4142",
"+, c #756845",
"+< c #756947",
"+1 c #877A50",
"+2 c #515450",
"+3 c #3E6CAC",
"+4 c #3E6CAD",
"+5 c #636761",
"+6 c #644939",
"+7 c #1B365D",
"+8 c #1B375E",
"+9 c #524135",
"+0 c #644E40",
"+q c #757B70",
"+w c #2E2A27",
"+e c #2E2A28",
"+r c #2E2A29",
"+t c #636F74",
"+y c #2E2A2A",
"+u c #2E2B28",
"+i c #2E2B2A",
"+p c #2E2B2B",
"+a c #2E2B2C",
"+s c #2E2B2D",
"+d c #2E2B2E",
"+f c #403834",
"+g c #2E2C2D",
"+h c #2E2C2F",
"+j c #2E2C33",
"+k c #40392D",
"+l c #403933",
"+z c #2E2D2D",
"+x c #2E2D2E",
"+c c #2E2D2F",
"+v c #2E2D31",
"+b c #2E2D32",
"+n c #2E2D33",
"+m c #2E2D34",
"+M c #403A35",
"+N c #403A36",
"+B c #2E2E2F",
"+V c #2E2E35",
"+C c #2E2E36",
"+Z c #524836",
"+A c #403C36",
"+S c #403C38",
"+D c #2E302E",
"+F c #403D38",
"+G c #403D3C",
"+H c #2E3131",
"+J c #403E33",
"+K c #524C38",
"+L c #3F6093",
"+P c #645B42",
"+I c #3F6196",
"+U c #52544E",
"+Y c #887B53",
"+T c #887C52",
"+R c #3F6DAE",
"+E c #654A3D",
"+W c #533E32",
"+Q c #525E6C",
"+! c #1D1A18",
"+~ c #1C3961",
"+^ c #534137",
"+/ c #654E45",
"+( c #534237",
"+) c #2F2927",
"+_ c #2F2928",
"+` c #2F2929",
"+' c #2F2A27",
"+] c #2F2A28",
"+[ c #2F2A29",
"+{ c #2F2A2A",
"+} c #2F2A2B",
"+| c #2F2B29",
"@  c #2F2B2B",
"@. c #2F2B2C",
"@X c #2F2B2E",
"@o c #2F2C29",
"@O c #2F2C2A",
"@+ c #2F2C2B",
"@@ c #2F2C2C",
"@# c #2F2C2D",
"@$ c #2F2C2E",
"@% c #2F2C31",
"@& c #2F2D2D",
"@* c #2F2D2E",
"@= c #2F2D2F",
"@- c #2F2D34",
"@; c #2F2E2C",
"@: c #2F2E2E",
"@> c #2F2E30",
"@, c #534741",
"@< c #2F2E33",
"@1 c #52668A",
"@2 c #413B34",
"@3 c #413B35",
"@4 c #413B36",
"@5 c #2F2F2D",
"@6 c #413C37",
"@7 c #413C3B",
"@8 c #2F3031",
"@9 c #2F3134",
"@0 c #413E39",
"@q c #414039",
"@w c #776743",
"@e c #406093",
"@r c #2E5489",
"@t c #414242",
"@y c #406194",
"@u c #406196",
"@i c #535048",
"@p c #414442",
"@a c #89794F",
"@s c #41474F",
"@d c #5273A4",
"@f c #897B52",
"@g c #897C53",
"@h c #535C6C",
"@j c #785744",
"@k c #4070B2",
"@l c #544137",
"@z c #664E44",
"@x c #53616F",
"@c c #536272",
"@v c #302A2A",
"@b c #54433D",
"@n c #777C73",
"@m c #42372F",
"@M c #302B27",
"@N c #302B28",
"@B c #302B29",
"@V c #54443B",
"@C c #302B2A",
"@Z c #302B2B",
"@A c #302C27",
"@S c #302C29",
"@D c #302C2A",
"@F c #302C2D",
"@G c #302C2E",
"@H c #302C2F",
"@J c #302D2A",
"@K c #302D2B",
"@L c #302D2E",
"@P c #302D30",
"@I c #302D34",
"@U c #423A2E",
"@Y c #302E2B",
"@T c #302E2C",
"@R c #302E2E",
"@E c #302E30",
"@W c #302E35",
"@Q c #423B33",
"@! c #423B36",
"@~ c #302F2D",
"@^ c #302F36",
"@/ c #898E85",
"@( c #423D37",
"@) c #423D39",
"@_ c #423D3B",
"@` c #423D3C",
"@' c #30313A",
"@] c #423E38",
"@[ c #899088",
"@{ c #303232",
"@} c #303234",
"@| c #303238",
"#  c #42403A",
"#. c #424045",
"#X c #303439",
"#o c #665B3F",
"#O c #C17A48",
"#+ c #42423F",
"#@ c #424249",
"## c #545048",
"#$ c #786A46",
"#% c #786A47",
"#& c #2F568C",
"#* c #786B46",
"#= c #54523F",
"#- c #8A7C53",
"#; c #8A7D53",
"#: c #666861",
"#> c #795841",
"#, c #674C3C",
"#< c #674E3F",
"#1 c #433631",
"#2 c #674F43",
"#3 c #312B29",
"#4 c #312B2A",
"#5 c #312B2B",
"#6 c #55443D",
"#7 c #312C29",
"#8 c #312C2B",
"#9 c #433935",
"#0 c #312D2A",
"#q c #312D2B",
"#w c #312D2C",
"#e c #312D2D",
"#r c #312D2E",
"#t c #312D30",
"#y c #1F2126",
"#u c #1F2127",
"#i c #312E2B",
"#p c #312E2C",
"#a c #312E2D",
"#s c #312E30",
"#d c #78807B",
"#f c #312F2D",
"#g c #433C37",
"#h c #313031",
"#j c #313032",
"#k c #313033",
"#l c #313132",
"#z c #313137",
"#x c #313138",
"#c c #313231",
"#v c #31323A",
"#b c #313339",
"#n c #313435",
"#m c #675B48",
"#M c #675C4C",
"#N c #313738",
"#B c #555049",
"#V c #796A46",
"#C c #30568C",
"#Z c #796B47",
"#A c #434542",
"#S c #796C48",
"#D c #55544D",
"#F c #55564F",
"#G c #555750",
"#H c #684431",
"#J c #8B7F55",
"#K c #426BA7",
"#L c #426BA8",
"#P c #5478AD",
"#I c #426CA9",
"#U c #5479AF",
"#Y c #676A62",
"#T c #684C3C",
"#R c #4271B3",
"#E c #4272B5",
"#W c #4272B6",
"#Q c #564134",
"#! c #684F40",
"#~ c #56433A",
"#^ c #322C29",
"#/ c #322C2A",
"#( c #322C2B",
"#) c #322C2C",
"#_ c #797E74",
"#` c #322D29",
"#' c #322D2A",
"#] c #322D2B",
"#[ c #322D2C",
"#{ c #56463E",
"#} c #322D2E",
"#| c #202128",
"$  c #322E2A",
"$. c #322E2B",
"$X c #322E2C",
"$o c #322E2D",
"$O c #67737B",
"$+ c #322E31",
"$@ c #322E32",
"$# c #202227",
"$$ c #322F2B",
"$% c #322F2E",
"$& c #322F32",
"$* c #32302F",
"$= c #323031",
"$- c #323032",
"$; c #323034",
"$: c #323036",
"$> c #443D34",
"$, c #32312F",
"$< c #323131",
"$1 c #323132",
"$2 c #323138",
"$3 c #323231",
"$4 c #323232",
"$5 c #323235",
"$6 c #323236",
"$7 c #323335",
"$8 c #44403D",
"$9 c #564D3B",
"$0 c #323436",
"$q c #323536",
"$w c #323636",
"$e c #323738",
"$r c #444446",
"$t c #7A6B46",
"$y c #7A6B47",
"$u c #7A6C47",
"$i c #686152",
"$p c #7A6E4C",
"$a c #565758",
"$s c #436CA9",
"$d c #9F6E4D",
"$f c #565E5C",
"$g c #4370B3",
"$h c #4371B3",
"$j c #7B5942",
"$k c #4372B6",
"$l c #45362C",
"$z c #211D1B",
"$x c #574337",
"$c c #203D68",
"$v c #453830",
"$b c #203E69",
"$n c #332C2B",
"$m c #332D2C",
"$M c #332D2D",
"$N c #332E2B",
"$B c #332E2D",
"$V c #332F2B",
"$C c #332F2C",
"$Z c #332F2D",
"$A c #332F2E",
"$S c #332F2F",
"$D c #7A8177",
"$F c #453C37",
"$G c #33302C",
"$H c #33302D",
"$J c #33302F",
"$K c #333030",
"$L c #333032",
"$P c #566885",
"$I c #333034",
"$U c #33312D",
"$Y c #333132",
"$T c #333133",
"$R c #333137",
"$E c #33313B",
"$W c #333232",
"$Q c #333233",
"$! c #333235",
"$~ c #333238",
"$^ c #453F37",
"$/ c #453F3A",
"$( c #45403C",
"$) c #45413E",
"$_ c #574E42",
"$` c #333535",
"$' c #333636",
"$] c #695D3F",
"$[ c #454541",
"${ c #7B6C48",
"$} c #7B6C55",
"$| c #696044",
"%  c #7B6D47",
"%. c #454B4A",
"%X c #454E64",
"%o c #696B5B",
"%O c #696B63",
"%+ c #4472B5",
"%@ c #696D68",
"%# c #6A4F3D",
"%$ c #696F6D",
"%% c #584438",
"%& c #463A33",
"%* c #576678",
"%= c #58473E",
"%- c #342E2D",
"%; c #7B8177",
"%: c #34302C",
"%> c #34302D",
"%, c #34302E",
"%< c #34302F",
"%1 c #343032",
"%2 c #34312E",
"%3 c #34312F",
"%4 c #697680",
"%5 c #463E32",
"%6 c #34322F",
"%7 c #343230",
"%8 c #343231",
"%9 c #343232",
"%0 c #343233",
"%q c #463F3A",
"%w c #343331",
"%e c #343332",
"%r c #343333",
"%t c #343334",
"%y c #343335",
"%u c #343336",
"%i c #34333A",
"%p c #343432",
"%a c #343537",
"%s c #34373A",
"%d c #34393A",
"%f c #585349",
"%g c #7C6D48",
"%h c #464D4A",
"%j c #464D56",
"%k c #58605B",
"%l c #6A6D66",
"%z c #223C63",
"%x c #6A6F68",
"%c c #232121",
"%v c #473A32",
"%b c #352E2D",
"%n c #352E2E",
"%m c #352F2F",
"%M c #352F30",
"%N c #7C8176",
"%B c #35302F",
"%V c #353031",
"%C c #353032",
"%Z c #232427",
"%A c #353130",
"%S c #353132",
"%D c #353230",
"%F c #353232",
"%G c #353235",
"%H c #353330",
"%J c #35333C",
"%K c #35342E",
"%L c #353433",
"%P c #353435",
"%I c #353736",
"%U c #474434",
"%Y c #353839",
"%T c #353A39",
"%R c #353B3B",
"%E c #7D6E48",
"%W c #7D6E49",
"%Q c #7D704C",
"%! c #353D53",
"%~ c #353E52",
"%^ c #345D96",
"%/ c #353F56",
"%( c #354057",
"%) c #475064",
"%_ c #595D63",
"%` c None",
/* pixels */
"%`%`%`%`%`%`%`%`%`%`%`%`%`%`%`%`%`%`%`%`%`%`%`%`%`%`%`%`%`%`%`%`%`%`%`%`%`%`%`%`%`%`%`%`%`%`%`%`",
"%`%`%`%`%`%`%`%`%`%`%`%`%`%`%`%`%`%`%`%`%`%`%`%`%`%`%`+x%Z%`%`%`%`%`%`%`%`%`%`%`%`%`%`%`%`%`%`%`",
"%`%`%`%`%`%`%`%`%`%`%`%`%`%`%`%`%`%`%`%`%`%`%`%`%`%`$A#5#8$Y%`%`%`%`%`%`%`%`%`%`%`%`%`%`%`%`%`%`",
"%`%`%`%`%`%`%`%`%`%`%`%`%`%`%`%`%`%`%`%`%`%`%`%`%`Oa@COX#M &#}$-%`%`%`%`%`%`%`%`%`%`%`%`%`%`%`%`",
"%`%`%`%`%`%`%`%`%`%`%`%`%`%`%`%`%`%`%`%`%`%`%`%`$z#e+}@Q$i$}.d@C%B+%%`%`%`%`%`%`%`%`%`%`%`%`%`%`",
"%`%`%`%`%`%`%`%`%`%`%`%`%`%`%`%`%`%`%`%`%`%`%`%`+{ <.e$KOdol%f.b.s@B.qO%%`%`%`%`%`%`%`%`%`%`%`%`",
"%`%`%`%`%`%`%`%`%`%`%`%`%`%`%`%`%`%`%`%`%`%`%z+_O4+=oB.kOM@LOy q /@)#/$N.^ B%`%`%`%`%`%`%`%`%`%`",
"%`%`%`%`%`%`%`%`%`%`%`%`%`%`%`%`%`%`OAo%#W#Wo~%0 IOL+N$_OS.W.8@Z@D+'#`#^$n$m 6%`%`%`%`%`%`%`%`%`",
"%`%`%`%`%`%`%`%`%`%`%`%`%`%`%`%` p#W#W#W#W@y+p%_+t#= 3+#+$X!.WX7 -+]@M#3#^#'#]%B%u%`%`%`%`%`%`%`",
"%`%`%`%`%`%`%`%`%`%`%`%`%`%`@r#E#W#W#W#W$s#x {%4Xk#% w E.0@!O-Xq.~Xw$K+]@N#4#8#(#).4#j%`%`%`%`%`",
"%`%`%`%`%`%`%`%`%`%`%`%`%`oD#W#W#W#W#W$h iO5$O%o#S#*$y#$#o+&oj#gozok WOm$%+_@v#4#)$M%nX~O&%`%`%`",
"%`%`%`%`%`%`%`%`%`%`%`%`+R#W#W#W#W#W#Wo!@@$r# Xg$t$t$u${%g#Z.j.T+A@4.h [#m.w@G+`#[$M%-%m m.(%`%`",
"%`%`%`%`%`%`%`%`%`%`%`+R#W#W#W#W#W#W@u+.%P P.R+@.p#V% %E%W t y+<+K.r@]@6.h##$) 1@F$n%b%mX3X[%`%`",
"%`%`%`%`%`%`%`%`%`%`oD#W#W#W#W#W#W#I@'$1$1%9 P LX0%5$] e _ '.n.n.mX|%UO:%q@)@iX}+G J#}%M.[%`%`%`",
"%`%`%`%`%`%`%`%`%`@r#W#W#W#W#W#W$h%(XT%A+0 4$< 8 YX6+l+Z+,.n.{XdoXoo.|$|+J@0$(@`OD+*%G#.%`%`%`%`",
"%`%`%`%`%`%`%`%`%`#E#W#W#W#W#W#WXD++or.O@p%w P#9$W.t.EO=$>O3 ]oCoCoAO9OHX o.Xe$8@_X^%V.x%`%`%`%`",
"%`%`%`%`%`%`%`%` p#W#W#W#W#W#W+I+X%%+Eor$wOi#D $.t$4%L.!XQ@3.Q.zO8OGOJ+1+T+Y$p+k C%S#@%`%`%`%`%`",
"%`%`%`%`%`%`%`%`#W#W#W#W#W#W#I#v.P#:oYo;%3Oo j%T%H$F@V$Q.yokOn$^$9%Q@f@g#;#-.'@U ;X'%`%`%`%`%`%`",
"%`%`%`%`%`%`%`OA#W#W#W#W#W#R%/O]O/+U%kOp#7OW+.$,@qOP+f.~%t%rocon+S 7+POK#J@aX8 D%S@|%`%`%`%`%`%`",
"%`%`%`%`%`%`%`o$#W#W#W#W#WXVXIOd.,Oo+.$U#_@2$V%2+ .}%Y$C%=#{ 5.uX`ON$/obO6@w M :%X%`%`%`%`%`%`%`",
"%`%`%`%`%`%`%`#W#W#W#W#W@e@+.GXa#F.BXcO~o+%ROu@A x#a$CoG%O.aX].u 9O>O<@7 U+M HO2Xo%`%`%`%`%`%`%`",
"%`%`%`%`%`%`%`#W#W#W#W#L#b@&%-+:.@+q.5.-Oo@S%K%;@5%:.3O'Xj%e%:X*@,.i ROCOVov KX_#W+8%`%`%`%`%`%`",
"%`%`%`%`%`%`$c#W#W#W#R%~X1o_.N.;o{Xh.H+D+uXC.JXF@{ > +@j G$JO7%xXiOB.Y TomX)%)%+#W V%`%`%`%`%`%`",
"%`%`%`%`%`%` V#W#W#Wo>@*XH.c$`+u$ o3.K+H$GXyOR$x$N u%N%p * b$S@}%2Xs ZOv ,O1oS#W#WX9%`%`%`%`%`%`",
"%`%`%`%`%`%` A#W#W+L+a@#o1o}+%+eo6OUOwXA$[XB%.XY#T$vOx@;Xfofo/ox%F$f.9Xu$o@1#W#W#WX(%`%`%`%`%`%`",
"%`%`%`%`%`%`$b#W#K#z.<oZ o.L$Co_o).oOt+W#qXP#cO,._OY+^%,#A+-%IX4owoh%a$C. .M#W#W#W.2%`%`%`%`%`%`",
"%`%`%`%`%`%`%`$g%!+gXP$D%hO`#0 c#fXF%dOpXGoI.1Og%l (%>+9OW+B$Z `#BoQ =Xr@d#W#W#W#W+~%`%`%`%`%`%`",
"%`%`%`%`%`%`%`XMOx@#$%o|+oOQ.Fo-$j#`O|.##GoNo,@Y+i$*.F.`#,%D F ! 2oV@.$P$k#W#W#W#W%`%`%`%`%`%`%`",
"%`%`%`%`%`%`+!+XXO#OX@#w$Bo[./@nO!o[@mOa#YXt$'$$+6%&.-+2 ) =o5#6#k@OOqoJ#W#W#W#W+4%`%`%`%`%`%`%`",
"%`%`%`%`%`%`@@@=#H 0$d+[$.Xb+r$H$qo)$l#> l++O!XN@(oR+(@R%6.GoP#!%v.gX.#W#W#W#W#W#C%`%`%`%`%`%`%`",
"%`%`%`%`%`o`+c@F fOT@$o^X$o:oK.&@o.+Xx+; hOf#iO_@/$3@T%7 G.I#d.v@+ S  #W#W#W#W#W%`%`%`%`%`%`%`%`",
"%`%`%`%`.%Oc@p }oW%b#wXP$Go&+.oiX>#3X+$$#N$ #Q MXL$e+uO'o<#2$T+p |#U#W#W#W#W#Wo#%`%`%`%`%`%`%`%`",
"%`%`%`+!#s@>.fX#..+yO] k$X.A$0o7XZoU.Z+XOaXmojXv@l.7o8@t s%<@R$!o #W#W#W#W#W#W+8%`%`%`%`%`%`%`%`",
"%`%`%`%cO(+dXl+F+hX%.G X .#1@D.+.]#+o=$V@KX=@[@~+z%7%8 Q%y ~+a%*.X#W#W#W#W#W%^%`%`%`%`%`%`%`%`%`",
"%`%`%`%`OkotO)#r@LX-XXoF+.OE%,O^%@.6@8#wXn.*XH#n+|o|#<.S$=$o@s a#W#W#W#W#W+3%`%`%`%`%`%`%`%`%`%`",
"%`%`%`%`%`XWo(oy@P@E%rOs@9o_o4 go]Ojo}.$+)%#X&%0XH.)%$ O@:@HoM$k#W#W#W#W@k%`%`%`%`%`%`%`%`%`%`%`",
"%`%`%`%`%`%`$#OOX:+O$+@X+p.C+w.=oT%D@ @J+-+XX<$L#h 1 r%s+p@xO0#W#W#W#W@kOe%`%`%`%`%`%`%`%`%`%`%`",
"%`%`%`%`%`%`%`X,+nXJos$+$Ko0.l#p+%$S#~XK+i$7Ohoa.V+/+v@RX{oO#W#W#W#W+3%`%`%`%`%`%`%`%`%`%`%`%`%`",
"%`%`%`%`%`%`%`%`%`X5O(XU#t%1+sO#o9oe.DoL.>$&.:+>#l @+hO[ %  #W#W#W%^%`%`%`%`%`%`%`%`%`%`%`%`%`%`",
"%`%`%`%`%`%`%`%`%`%`#u+joqO[%C%1opOI+5%8$L : NXR$a#XO.%j#P#W#WXz+7%`%`%`%`%`%`%`%`%`%`%`%`%`%`%`",
"%`%`%`%`%`%`%`%`%`%`%`%`X/O o'$@$IOko@$5OOXSoE #od+v@^Xp+3#&%`%`%`%`%`%`%`%`%`%`%`%`%`%`%`%`%`%`",
"%`%`%`%`%`%`%`%`%`%`%`%`%`#yO{o'@%$;@<+b zo2$6@z@bX2+Q%`%`%`%`%`%`%`%`%`%`%`%`%`%`%`%`%`%`%`%`%`",
"%`%`%`%`%`%`%`%`%`%`%`%`%`%`X;ObO.O@$:$ROloHo*O;XEOF d%`%`%`%`%`%`%`%`%`%`%`%`%`%`%`%`%`%`%`%`%`",
"%`%`%`%`%`%`%`%`%`%`%`%`%`%`%`%`O*O}O+@W$~@W v+Vog n%`%`%`%`%`%`%`%`%`%`%`%`%`%`%`%`%`%`%`%`%`%`",
"%`%`%`%`%`%`%`%`%`%`%`%`%`%`%`%`%`#|@-Oz+m%i$2.UOr%`%`%`%`%`%`%`%`%`%`%`%`%`%`%`%`%`%`%`%`%`%`%`",
"%`%`%`%`%`%`%`%`%`%`%`%`%`%`%`%`%`%`%`+C@IO$ou ^@c%`%`%`%`%`%`%`%`%`%`%`%`%`%`%`%`%`%`%`%`%`%`%`",
"%`%`%`%`%`%`%`%`%`%`%`%`%`%`%`%`%`%`%`%`OZ$E%J@h%`%`%`%`%`%`%`%`%`%`%`%`%`%`%`%`%`%`%`%`%`%`%`%`",
"%`%`%`%`%`%`%`%`%`%`%`%`%`%`%`%`%`%`%`%`%`%`%`%`%`%`%`%`%`%`%`%`%`%`%`%`%`%`%`%`%`%`%`%`%`%`%`%`"
};
